<?xml version="1.0" standalone="no"?>
<!DOCTYPE svg PUBLIC "-//W3C//DTD SVG 20010904//EN"
 "http://www.w3.org/TR/2001/REC-SVG-20010904/DTD/svg10.dtd">
<svg version="1.0" xmlns="http://www.w3.org/2000/svg"
 width="128.000000pt" height="128.000000pt" viewBox="0 0 128.000000 128.000000"
 preserveAspectRatio="xMidYMid meet">

<g transform="translate(0.000000,128.000000) scale(0.100000,-0.100000)"
fill="#000000" stroke="none">
<path d="M1 993 c1 -280 1 -286 15 -219 52 242 248 438 489 490 68 14 63 14
-217 15 l-288 1 1 -287z"/>
<path d="M775 1264 c229 -49 430 -242 481 -461 5 -22 -18 -4 -117 95 -69 67
-131 122 -140 122 -8 0 -26 11 -39 25 -16 17 -34 25 -57 25 -29 0 -33 -3 -33
-25 l0 -25 -201 0 c-200 0 -201 0 -231 25 -19 16 -42 25 -64 25 -30 0 -34 -3
-34 -25 0 -22 -4 -25 -40 -25 l-40 0 0 -90 0 -90 383 -2 382 -3 3 -287 2 -288
-382 0 -383 0 120 -120 c66 -66 115 -120 109 -120 -22 0 -129 41 -171 65 -161
95 -275 257 -312 446 -6 29 -9 -50 -10 -243 l-1 -288 640 0 640 0 0 640 0 640
-287 -1 c-281 -1 -286 -1 -218 -15z"/>
<path d="M582 757 c-29 -30 -31 -35 -17 -47 12 -10 19 -10 27 -2 22 22 28 12
28 -52 0 -60 8 -76 36 -76 2 0 4 47 4 105 0 103 0 105 -23 105 -13 0 -37 -15
-55 -33z"/>
<path d="M681 498 c-4 -13 -18 -49 -30 -81 -11 -32 -21 -60 -21 -62 0 -9 39
-5 45 5 3 6 21 10 40 10 19 0 37 -4 40 -10 6 -10 45 -14 45 -5 0 3 -14 42 -31
85 -27 70 -34 80 -55 80 -16 0 -27 -8 -33 -22z m48 -58 c9 -28 8 -30 -14 -30
-22 0 -23 2 -14 30 6 17 12 30 14 30 2 0 8 -13 14 -30z"/>
<path d="M820 436 c0 -79 2 -86 20 -86 16 0 20 7 20 30 0 38 16 38 38 0 11
-20 25 -30 40 -30 23 0 23 0 6 29 -16 27 -16 30 -1 46 42 42 10 86 -67 93
l-56 4 0 -86z m95 24 c0 -9 -11 -16 -27 -18 -23 -3 -28 1 -28 18 0 17 5 21 28
18 16 -2 27 -9 27 -18z"/>
<path d="M350 461 c17 -26 30 -62 30 -80 0 -21 5 -31 15 -31 10 0 15 10 15 30
0 17 13 51 30 78 25 40 27 48 13 51 -15 3 -35 -15 -47 -43 -3 -6 -14 1 -26 17
-12 15 -30 27 -41 27 -17 0 -16 -5 11 -49z"/>
<path d="M500 430 l0 -80 55 0 c41 0 55 4 55 14 0 10 -13 16 -37 18 -27 2 -39
8 -41 21 -3 14 4 17 37 17 30 0 41 4 41 15 0 11 -11 15 -40 15 -29 0 -40 4
-40 15 0 11 11 15 40 15 29 0 40 4 40 15 0 12 -13 15 -55 15 l-55 0 0 -80z"/>
</g>
</svg>
